<?xml version="1.0" encoding="UTF-8"?>
<svg xmlns="http://www.w3.org/2000/svg" width="325.734375" height="574">
   <defs>
      <style type="text/css">
                        text {
                            font-family: 'Arial';
                            fill: black;
                        }
                        text.at {
                            font-family: 'Arial';
                            fill: rgb(242, 152, 0);
                        }
                        line {
                            stroke: black;
                        }
                        line.type-structure {
                            stroke: black;
                        }
                        line.type-structure-optional {
                            stroke: black;
                            stroke-dasharray: 4, 4;
                        }
                        rect.attribute-upper {
                            stroke: black;
                            fill: rgb(255, 239, 211);
                        }
                        rect.element-upper {
                            stroke: black;
                            fill: rgb(215, 227, 249);
                        }
                        rect.element-lower {
                            stroke: black;
                            fill: rgb(236, 242, 252);
                        }
                        a text {
                            fill: black;
                        } 
                    </style>
   </defs>
   <rect width="315.734375"
         height="564"
         stroke-dasharray="3,3"
         rx="1"
         ry="1"
         style="stroke: grey;fill: white;"/>
   <text font-size="14" x="3.6" y="18" font-weight="bold">complexType Behoerde</text>
   <g transform="translate(10,34)">
      <g transform="translate(55,0)">
         <rect width="64.890625" height="18" class="element-upper"/>
         <rect width="64.890625" height="18" y="18" class="element-lower"/>
         <text font-size="12" x="3.6" y="12" font-weight="bold">id</text>
         <line x1="0" y1="18" x2="64.890625" y2="18"/>
         <text font-size="12" fill="grey" x="3.6" y="30">type</text>
         <line x1="31.753125" y1="18" x2="31.753125" y2="36"/>
         <text font-size="12" x="35.353125" y="30">xs:ID</text>
         <g transform="translate(64.890625,0)"/>
      </g>
      <line x1="33"
            y1="18"
            x2="55"
            y2="18"
            class="type-structure-optional"/>
      <text font-size="11" fill="black" x="53" y="16" text-anchor="end">0..1</text>
      <line x1="33"
            y1="18"
            x2="33"
            y2="18"
            class="type-structure-optional"/>
      <g transform="translate(55,48)">
         <rect width="126.03125" height="18" class="element-upper"/>
         <rect width="126.03125" height="18" y="18" class="element-lower"/>
         <text font-size="12" x="3.6" y="12" font-weight="bold">typ</text>
         <line x1="0" y1="18" x2="126.03125" y2="18"/>
         <text font-size="12" fill="grey" x="3.6" y="30">type</text>
         <line x1="31.753125" y1="18" x2="31.753125" y2="36"/>
         <text font-size="12" x="35.353125" y="30">xoev-code:Code</text>
         <g transform="translate(126.03125,0)"/>
      </g>
      <line x1="33"
            y1="66"
            x2="55"
            y2="66"
            class="type-structure-optional"/>
      <text font-size="11" fill="black" x="53" y="64" text-anchor="end">0..1</text>
      <line x1="33"
            y1="18"
            x2="33"
            y2="66"
            class="type-structure-optional"/>
      <g transform="translate(55,96)">
         <rect width="147.734375" height="18" class="element-upper"/>
         <rect width="147.734375" height="18" y="18" class="element-lower"/>
         <text font-size="12" x="3.6" y="12" font-weight="bold">zusatz</text>
         <line x1="0" y1="18" x2="147.734375" y2="18"/>
         <text font-size="12" fill="grey" x="3.6" y="30">type</text>
         <line x1="31.753125" y1="18" x2="31.753125" y2="36"/>
         <text font-size="12" x="35.353125" y="30">din91379:datatypeC</text>
         <g transform="translate(147.734375,0)"/>
      </g>
      <line x1="33"
            y1="114"
            x2="55"
            y2="114"
            class="type-structure-optional"/>
      <text font-size="11"
            fill="black"
            x="53"
            y="112"
            text-anchor="end">0..1</text>
      <line x1="33"
            y1="66"
            x2="33"
            y2="114"
            class="type-structure-optional"/>
      <g transform="translate(55,144)">
         <rect width="175.734375" height="18" class="element-upper"/>
         <rect width="175.734375" height="18" y="18" class="element-lower"/>
         <text font-size="12" x="3.6" y="12" font-weight="bold">behoerdenkennung</text>
         <line x1="0" y1="18" x2="175.734375" y2="18"/>
         <text font-size="12" fill="grey" x="3.6" y="30">type</text>
         <line x1="31.753125" y1="18" x2="31.753125" y2="36"/>
         <text font-size="12" x="35.353125" y="30">xbbd:Behoerdenkennung</text>
         <g transform="translate(175.734375,0)"/>
      </g>
      <line x1="33"
            y1="162"
            x2="55"
            y2="162"
            class="type-structure-optional"/>
      <text font-size="11"
            fill="black"
            x="53"
            y="160"
            text-anchor="end">0..1</text>
      <line x1="33"
            y1="114"
            x2="33"
            y2="162"
            class="type-structure-optional"/>
      <g transform="translate(55,192)">
         <rect width="153.703125" height="18" class="element-upper"/>
         <rect width="153.703125" height="18" y="18" class="element-lower"/>
         <text font-size="12" x="3.6" y="12" font-weight="bold">kommunikation</text>
         <line x1="0" y1="18" x2="153.703125" y2="18"/>
         <text font-size="12" fill="grey" x="3.6" y="30">type</text>
         <line x1="31.753125" y1="18" x2="31.753125" y2="36"/>
         <text font-size="12" x="35.353125" y="30">xbbd:Kommunikation</text>
         <g transform="translate(153.703125,0)"/>
      </g>
      <line x1="33"
            y1="210"
            x2="55"
            y2="210"
            class="type-structure-optional"/>
      <text font-size="11"
            fill="black"
            x="53"
            y="208"
            text-anchor="end">0..*</text>
      <line x1="33"
            y1="162"
            x2="33"
            y2="210"
            class="type-structure-optional"/>
      <g transform="translate(55,240)">
         <rect width="143.51874999999998" height="18" class="element-upper"/>
         <rect width="143.51874999999998"
               height="18"
               y="18"
               class="element-lower"/>
         <text font-size="12" x="3.6" y="12" font-weight="bold">behoerdenidentifikation</text>
         <line x1="0" y1="18" x2="143.51874999999998" y2="18"/>
         <text font-size="12" fill="grey" x="3.6" y="30">type</text>
         <line x1="31.753125" y1="18" x2="31.753125" y2="36"/>
         <text font-size="12" x="35.353125" y="30">xbbd:Identifikation</text>
         <g transform="translate(143.51874999999998,0)"/>
      </g>
      <line x1="33"
            y1="258"
            x2="55"
            y2="258"
            class="type-structure-optional"/>
      <text font-size="11"
            fill="black"
            x="53"
            y="256"
            text-anchor="end">0..1</text>
      <line x1="33"
            y1="210"
            x2="33"
            y2="258"
            class="type-structure-optional"/>
      <g transform="translate(55,288)">
         <rect width="171.703125" height="18" class="element-upper"/>
         <rect width="171.703125" height="18" y="18" class="element-lower"/>
         <text font-size="12" x="3.6" y="12" font-weight="bold">behoerdenname</text>
         <line x1="0" y1="18" x2="171.703125" y2="18"/>
         <text font-size="12" fill="grey" x="3.6" y="30">type</text>
         <line x1="31.753125" y1="18" x2="31.753125" y2="36"/>
         <text font-size="12" x="35.353125" y="30">xbbd:NameOrganisation</text>
         <g transform="translate(171.703125,0)"/>
      </g>
      <line x1="33"
            y1="306"
            x2="55"
            y2="306"
            class="type-structure-optional"/>
      <text font-size="11"
            fill="black"
            x="53"
            y="304"
            text-anchor="end">0..1</text>
      <line x1="33"
            y1="258"
            x2="33"
            y2="306"
            class="type-structure-optional"/>
      <g transform="translate(55,336)">
         <rect width="150.14374999999998" height="18" class="element-upper"/>
         <rect width="150.14374999999998"
               height="18"
               y="18"
               class="element-lower"/>
         <text font-size="12" x="3.6" y="12" font-weight="bold">nachgeordneteBehoerde</text>
         <line x1="0" y1="18" x2="150.14374999999998" y2="18"/>
         <text font-size="12" fill="grey" x="3.6" y="30">type</text>
         <line x1="31.753125" y1="18" x2="31.753125" y2="36"/>
         <text font-size="12" x="35.353125" y="30">xbbd:Behoerde</text>
         <g transform="translate(150.14374999999998,0)"/>
      </g>
      <line x1="33"
            y1="354"
            x2="55"
            y2="354"
            class="type-structure-optional"/>
      <text font-size="11"
            fill="black"
            x="53"
            y="352"
            text-anchor="end">0..*</text>
      <line x1="33"
            y1="306"
            x2="33"
            y2="354"
            class="type-structure-optional"/>
      <g transform="translate(55,384)">
         <rect width="244.734375" height="18" class="element-upper"/>
         <rect width="244.734375" height="18" y="18" class="element-lower"/>
         <text font-size="12" x="3.6" y="12" font-weight="bold">verwaltungspolitischeZustaendigkeit</text>
         <line x1="0" y1="18" x2="244.734375" y2="18"/>
         <text font-size="12" fill="grey" x="3.6" y="30">type</text>
         <line x1="31.753125" y1="18" x2="31.753125" y2="36"/>
         <text font-size="12" x="35.353125" y="30">xbbd:VerwaltungspolitischeKodierung</text>
         <g transform="translate(244.734375,0)"/>
      </g>
      <line x1="33"
            y1="402"
            x2="55"
            y2="402"
            class="type-structure-optional"/>
      <text font-size="11"
            fill="black"
            x="53"
            y="400"
            text-anchor="end">0..*</text>
      <line x1="33"
            y1="354"
            x2="33"
            y2="402"
            class="type-structure-optional"/>
      <g transform="translate(55,432)">
         <rect width="115.109375" height="18" class="element-upper"/>
         <rect width="115.109375" height="18" y="18" class="element-lower"/>
         <text font-size="12" x="3.6" y="12" font-weight="bold">anschrift</text>
         <line x1="0" y1="18" x2="115.109375" y2="18"/>
         <text font-size="12" fill="grey" x="3.6" y="30">type</text>
         <line x1="31.753125" y1="18" x2="31.753125" y2="36"/>
         <text font-size="12" x="35.353125" y="30">xbbd:Anschrift</text>
         <g transform="translate(115.109375,0)"/>
      </g>
      <line x1="33"
            y1="450"
            x2="55"
            y2="450"
            class="type-structure-optional"/>
      <text font-size="11"
            fill="black"
            x="53"
            y="448"
            text-anchor="end">0..*</text>
      <line x1="33"
            y1="402"
            x2="33"
            y2="450"
            class="type-structure-optional"/>
      <g transform="translate(55,480)">
         <rect width="183.109375" height="18" class="element-upper"/>
         <rect width="183.109375" height="18" y="18" class="element-lower"/>
         <text font-size="12" x="3.6" y="12" font-weight="bold">organisationsstruktur</text>
         <line x1="0" y1="18" x2="183.109375" y2="18"/>
         <text font-size="12" fill="grey" x="3.6" y="30">type</text>
         <line x1="31.753125" y1="18" x2="31.753125" y2="36"/>
         <text font-size="12" x="35.353125" y="30">xbbd:Organisationseinheit</text>
         <g transform="translate(183.109375,0)"/>
      </g>
      <line x1="33"
            y1="498"
            x2="55"
            y2="498"
            class="type-structure-optional"/>
      <text font-size="11"
            fill="black"
            x="53"
            y="496"
            text-anchor="end">0..*</text>
      <line x1="33"
            y1="450"
            x2="33"
            y2="498"
            class="type-structure-optional"/>
      <circle cx="15"
              cy="18"
              r="10"
              stroke="black"
              fill="rgb(251, 251, 251)"/>
      <line x1="0"
            y1="18"
            x2="5"
            y2="18"
            class="type-structure-optional"/>
      <line x1="25"
            y1="18"
            x2="33"
            y2="18"
            class="type-structure-optional"/>
      <circle cx="10" cy="18" r="1.2" stroke="black" fill="black"/>
      <circle cx="15" cy="18" r="1.2" stroke="black" fill="black"/>
      <circle cx="20" cy="18" r="1.2" stroke="black" fill="black"/>
      <line x1="7" y1="18" x2="23" y2="18"/>
   </g>
</svg>
